<svg width="24" height="24" viewBox="0 0 24 24" fill="none" xmlns="http://www.w3.org/2000/svg">
<path d="M11.0046 7.49768C10.5482 6.89072 9.82169 6.4981 9.00338 6.4981C7.62201 6.4981 6.50218 7.61692 6.50218 8.99705C6.50218 10.206 7.36147 11.2145 8.50314 11.446M8.94814 17.9933C8.6972 17.9933 8.45057 17.9262 8.23248 17.7987C5.24547 15.8833 2 13.1262 2 9.1376C2 5.22502 5.18799 2 8.94814 2C10.9156 2 12.7264 2.88292 14.0058 4.28528" stroke="#141B34" stroke-width="1.5" stroke-linecap="round"/>
<path d="M12.6177 15.5488C11.2574 13.8933 11.0254 12.2309 12.9716 10.2124C15.0163 8.38795 16.1937 7.5251 16.5074 7.00586C16.8211 7.5251 18.0177 8.38795 20.0623 10.2124C21.9153 11.8659 21.7987 13.8933 20.4384 15.5488M12.6177 15.5488H12.0955M12.6177 15.5488H20.4384M20.4384 15.5488H20.8985M11.0254 15.5488H12.0955M12.0955 15.5488V21.0915C12.1355 21.7589 12.0955 22.0704 13.306 21.9829H16.4886M20.8985 15.5488H21.997M20.8985 15.5488V21.1929C21.0153 22.0995 20.2936 21.9404 19.8321 21.9829H16.4886M16.4886 21.9829L16.5239 19.8492" stroke="#141B34" stroke-width="1.5" stroke-linecap="round" stroke-linejoin="round"/>
</svg>
